<?xml version="1.0" encoding="utf-8"?>
<!-- Generator: Adobe Illustrator 22.0.1, SVG Export Plug-In . SVG Version: 6.00 Build 0)  -->
<svg version="1.0" id="ÉåÉCÉÑÅ_x5B__x5F_1" xmlns="http://www.w3.org/2000/svg" xmlns:xlink="http://www.w3.org/1999/xlink"
	 x="0px" y="0px" viewBox="0 0 491.6 544.3" enable-background="new 0 0 491.6 544.3" xml:space="preserve">
<g>
	<g>
		
			<path fill="#E7913A" stroke="#321605" stroke-width="10" stroke-linecap="round" stroke-linejoin="round" stroke-miterlimit="10" d="
			M146,439.6l-11.7,72.6c0,0-14.9,8.5-17.1,14.9c-2.1,6.4,21.3,18.1,43.8,8.5c22.4-9.6,34.1-92.8,34.1-92.8"/>
		
			<path fill="#E7913A" stroke="#321605" stroke-width="10" stroke-linecap="round" stroke-linejoin="round" stroke-miterlimit="10" d="
			M335.8,439.6l11.7,72.6c0,0,14.9,8.5,17.1,14.9c2.1,6.4-21.3,18.1-43.8,8.5c-22.4-9.6-34.1-92.8-34.1-92.8"/>
		
			<path fill="#F7B028" stroke="#321605" stroke-width="10" stroke-linecap="round" stroke-linejoin="round" stroke-miterlimit="10" d="
			M137.5,385.2c0,0-15,69.4-8.5,69.4c6.4,0,90.7,5.3,93.9,4.3c3.2-1.1,25.6-19.2,25.6-19.2s12.8,20.3,17.1,22.4
			c4.3,2.1,103.5-1.1,103.5-4.3c0-3.2-11.7-67.2-11.7-67.2L137.5,385.2z"/>
		
			<path fill="#E7913A" stroke="#321605" stroke-width="10" stroke-linecap="round" stroke-linejoin="round" stroke-miterlimit="10" d="
			M91.1,304.1l-54.6,19.1c0,0-12.2-8.2-20.9-5.5c-14.6,4.5-6.4,35.4,17.3,40.9c23.7,5.4,79.1-20.9,79.1-20.9"/>
		
			<path fill="#E7913A" stroke="#321605" stroke-width="10" stroke-linecap="round" stroke-linejoin="round" stroke-miterlimit="10" d="
			M403.9,297.7l54.6,19.1c0,0,12.2-8.2,20.9-5.5c14.6,4.6,6.4,35.5-17.3,40.9c-23.6,5.4-79.1-20.9-79.1-20.9"/>
		
			<path fill="#FA3B48" stroke="#321605" stroke-width="10" stroke-linecap="round" stroke-linejoin="round" stroke-miterlimit="10" d="
			M131.2,270.7c0,0-59.9,20.1-61.4,29.3c-1.5,9.3,18.4,51,23,49.4c4.6-1.5,46-13.9,46-13.9s-16.9,54.1-7.7,55.6
			c9.2,1.6,230.3,1.6,230.3,1.6l-10.8-66.4c0,0,28.1,16.8,32.7,16.8c4.6,0,47.8-37.1,43.2-44.8c-4.6-7.7-62.1-36.8-62.1-36.8"/>
	</g>
	<g>
		<g>
			<g>
				
					<path fill="#E7913A" stroke="#321605" stroke-width="10" stroke-linecap="round" stroke-linejoin="round" stroke-miterlimit="10" d="
					M467,206.1c2.2,48.9-102.1,74.7-228,74.7c-125.9,0-226.6-22.2-228-74.7c-1.3-51.5,102.1-74.7,228-74.7
					C365,131.4,464.6,152.8,467,206.1z"/>
				<g>
					<defs>
						<path id="SVGID_1_" d="M467,206.1c2.2,48.9-102.1,74.7-228,74.7c-125.9,0-226.6-22.2-228-74.7c-1.3-51.5,102.1-74.7,228-74.7
							C365,131.4,464.6,152.8,467,206.1z"/>
					</defs>
					<clipPath id="SVGID_2_">
						<use xlink:href="#SVGID_1_"  overflow="visible"/>
					</clipPath>
					<path clip-path="url(#SVGID_2_)" fill="#FBB066" d="M0,201.6c0,0,56.9,58.6,222.2,57.8c184.9-0.9,254.2-56.9,254.2-56.9
						s9.8,46.2-51.5,67.5c-61.3,21.3-274.6,30.6-317.3,27.5C32.9,292.3,0,201.6,0,201.6z"/>
					
						<use xlink:href="#SVGID_1_"  overflow="visible" fill="none" stroke="#321605" stroke-width="10" stroke-linecap="round" stroke-linejoin="round" stroke-miterlimit="10"/>
				</g>
			</g>
			<g>
				
					<path fill="#E7913A" stroke="#321605" stroke-width="10" stroke-linecap="round" stroke-linejoin="round" stroke-miterlimit="10" d="
					M467,164.3c2.2,48.9-102.1,74.6-228,74.6c-125.9,0-226.6-22.2-228-74.6c-1.3-51.5,102.1-74.7,228-74.7
					C365,89.6,464.6,111,467,164.3z"/>
				<g>
					<defs>
						<path id="SVGID_3_" d="M467,164.3c2.2,48.9-102.1,74.6-228,74.6c-125.9,0-226.6-22.2-228-74.6c-1.3-51.5,102.1-74.7,228-74.7
							C365,89.6,464.6,111,467,164.3z"/>
					</defs>
					<clipPath id="SVGID_4_">
						<use xlink:href="#SVGID_3_"  overflow="visible"/>
					</clipPath>
					<path clip-path="url(#SVGID_4_)" fill="#FBB066" d="M0,159.9c0,0,56.9,58.6,222.2,57.8c184.9-0.9,254.2-56.9,254.2-56.9
						s9.8,46.2-51.5,67.5c-61.3,21.3-274.6,30.6-317.3,27.5C32.9,250.5,0,159.9,0,159.9z"/>
					
						<use xlink:href="#SVGID_3_"  overflow="visible" fill="none" stroke="#321605" stroke-width="10" stroke-linecap="round" stroke-linejoin="round" stroke-miterlimit="10"/>
				</g>
			</g>
			<g>
				
					<path fill="#E7913A" stroke="#321605" stroke-width="10" stroke-linecap="round" stroke-linejoin="round" stroke-miterlimit="10" d="
					M467,119.9c2.2,48.9-102.1,74.7-228,74.7c-125.9,0-226.6-22.2-228-74.7c-1.3-51.5,102.1-74.7,228-74.7
					C365,45.2,464.6,66.6,467,119.9z"/>
				<g>
					<defs>
						<path id="SVGID_5_" d="M467,119.9c2.2,48.9-102.1,74.7-228,74.7c-125.9,0-226.6-22.2-228-74.7c-1.3-51.5,102.1-74.7,228-74.7
							C365,45.2,464.6,66.6,467,119.9z"/>
					</defs>
					<clipPath id="SVGID_6_">
						<use xlink:href="#SVGID_5_"  overflow="visible"/>
					</clipPath>
					<path clip-path="url(#SVGID_6_)" fill="#FBB066" d="M0,115.4c0,0,56.9,58.6,222.2,57.8c184.9-0.9,254.2-56.9,254.2-56.9
						s9.8,46.2-51.5,67.5c-61.3,21.3-274.6,30.6-317.3,27.5C32.9,206.1,0,115.4,0,115.4z"/>
					
						<use xlink:href="#SVGID_5_"  overflow="visible" fill="none" stroke="#321605" stroke-width="10" stroke-linecap="round" stroke-linejoin="round" stroke-miterlimit="10"/>
				</g>
			</g>
			<path fill="#F2D548" d="M186.4,56.5c0,0-87.3,8-94,19.3c-6.7,11.3,11.3,7.3,14.7,16.7c3.3,9.3-25.3,14.7-26,25.3
				c-0.7,10.7,24.7,21.3,37.3,18.7c12.7-2.7,47.3-23.3,61.3-16.7c14,6.7,6.7,33.3,28.7,36.7s51.3-28.7,69.3-26.7
				c18,2,34,21.3,49.3,18c15.3-3.3,16-38,34-37.3c18,0.7,50-13.3,40-25.3c-10-12-102-24.7-133.3-24.7"/>
			<g>
				
					<path fill="#F2D548" stroke="#321605" stroke-width="10" stroke-linecap="round" stroke-linejoin="round" stroke-miterlimit="10" d="
					M227.3,5l-56.9,15.1c0,0-3.6,42.7,0,42.7c3.6,0,64.9,18.7,70.2,18.7c5.3,0,66.7-21.3,67.5-24C309.1,54.8,310,21,310,21L227.3,5z
					"/>
				
					<polyline fill="#F2D548" stroke="#321605" stroke-width="10" stroke-linecap="round" stroke-linejoin="round" stroke-miterlimit="10" points="
					187.1,30.5 244.4,43.2 287.7,31.2 				"/>
				
					<line fill="#F2D548" stroke="#321605" stroke-width="10" stroke-linecap="round" stroke-linejoin="round" stroke-miterlimit="10" x1="244.4" y1="43.2" x2="244.4" y2="65.2"/>
			</g>
		</g>
		<g>
			<g>
				<path fill="#FE5F16" d="M210.2,131.7c0,21-17.1,38.1-38.1,38.1c-21,0-38.1-17.1-38.1-38.1c0-21,17.1-38.1,38.1-38.1
					C193.1,93.6,210.2,110.6,210.2,131.7z"/>
				<path fill="#FFFFFF" d="M165.7,108.7c1.3,2.8-1.3,6.8-5.8,8.8c-4.5,2-9.2,1.3-10.5-1.5c-1.3-2.8,1.3-6.8,5.8-8.8
					C159.7,105.2,164.4,105.9,165.7,108.7z"/>
			</g>
			<g>
				<path fill="#FE5F16" d="M345.6,131.7c0,21-17.1,38.1-38.1,38.1c-21,0-38.1-17.1-38.1-38.1c0-21,17.1-38.1,38.1-38.1
					C328.6,93.6,345.6,110.6,345.6,131.7z"/>
				<path fill="#FFFFFF" d="M301.1,108.7c1.3,2.8-1.3,6.8-5.8,8.8c-4.5,2-9.2,1.3-10.5-1.5c-1.3-2.8,1.3-6.8,5.8-8.8
					C295.1,105.2,299.8,105.9,301.1,108.7z"/>
			</g>
			<path fill="#321605" d="M215.8,101.1c0,10.4-5.4,18.8-12,18.8c-6.6,0-12-8.4-12-18.8c0-10.4,5.4-18.8,12-18.8
				C210.5,82.3,215.8,90.7,215.8,101.1z"/>
			<path fill="#321605" d="M282.6,101.1c0,10.4-5.4,18.8-12,18.8c-6.6,0-12-8.4-12-18.8c0-10.4,5.4-18.8,12-18.8
				C277.2,82.3,282.6,90.7,282.6,101.1z"/>
			
				<path fill="#FA3542" stroke="#321605" stroke-width="10" stroke-linecap="round" stroke-linejoin="round" stroke-miterlimit="10" d="
				M193.3,137.3l84.2-0.9c0,0-5.6,45.1-44.2,43.7C194.7,178.7,193.3,137.3,193.3,137.3z"/>
		</g>
	</g>
</g>
</svg>
